Patient4_TMGait_0pt6_02_left_17_EMG.mot
version=1
nRows=26
nColumns=33
inDegrees=no
endheader
time	1LAddLong	2LGlutMax	3LGlutMed	4LIliopsoas	5LSemiMemb	6LBicFemLong	7LRecFem	8LVastMed	9LVastLat	10LGasMed	11LTibAnt	12lTibPost	13LPeroneusLong	14LSol	15LExtDigLong	16LFlexDigLong	17RAddLong	18RGlutMax	19RGlutMed	20RIliopsoas	21RSemiMemb	22RBicFemLong	23RRecFem	24RVastMed	25RVastLat	26RGasMed	27RTibAnt	28RTibPost	29RPeroneusLong	30RSol	31RExtDigLong	32RFlexDigLong
22.15	0.019379	-0.002899	-0.1387	0.010986	0.011597	-0.055237	-0.037231	-0.006104	0.029755	-0.03067	0.007935	0.002899	0.053864	-0.042114	0.006256	-0.000153	0.037537	-0.13687	-0.0354	-0.065155	-0.029144	0.000458	-0.005798	0.16342	-0.014954	0.002136	0.056763	-0.029907	-0.24368	0.069427	-0.002594	-0.009003
22.151	0.005798	0.022583	-0.24216	0.009918	0.002289	-0.032349	-0.031433	-0.005341	0.038757	-0.050964	0.009003	0.000916	0.037689	0.10269	0.006714	-0.009918	0.018158	-0.11551	-0.058441	-0.03418	-0.2298	0.040131	0.14328	0.1506	0.010986	-0.002747	-0.31097	-0.025024	-0.3894	0.16769	-0.004578	-0.009918
22.152	0.002289	0.006866	-0.25177	0.006409	-0.004578	-0.048218	-0.037384	0.009766	0.024872	-0.049438	0.019989	-0.001068	0.019073	0.065155	0.009766	-0.008392	-0.016479	-0.12726	-0.039978	0.026855	-0.11932	-0.012817	0.12985	0.13229	0.003815	0	-0.75745	-0.019989	-0.22339	0.2095	-0.002441	-0.012054
22.153	0.00885	0.013428	-0.14771	0.002899	-0.027161	-0.078278	-0.038757	0.00473	0.030365	-0.041962	0.000916	0.000763	0.026398	0.06424	0.018158	-0.001068	0.011292	-0.10773	0.065002	0.032959	0.012207	-0.055084	0.12177	0.089264	0.011749	-0.000153	-0.27603	-0.014954	-0.031891	0.21561	-0.00412	-0.012512
22.154	0.006714	-0.049286	0.064392	0.001526	-0.009003	-0.084534	-0.041199	-0.000153	0.031128	-0.028992	0.013885	0.004272	0.052795	0.055847	0.003357	-0.005188	-0.03479	-0.078278	-0.054016	0.058441	-0.055695	0.00351	0.08255	0.06424	0.010529	0.006256	0.616	-0.010834	-0.10346	0.19089	0.003967	-0.005646
22.155	0.007324	-0.053864	0.19516	0.000916	0.054474	-0.070953	-0.048523	-0.005341	0.023193	-0.014801	-0.00351	0.006714	0.079803	0.008392	0.007477	0.010529	-0.058594	-0.10651	-0.20096	-0.003357	-0.060425	0.036926	0.035095	0.11154	0.011292	0.005341	1.3005	-0.013885	-0.1857	0.098267	0.000763	-0.000305
22.156	0.003357	-0.10178	0.19653	0.004425	0.052795	-0.036774	-0.041962	-0.000153	0.019684	-0.018005	0.009308	0.003662	0.086975	-0.041504	0.00061	0.004883	-0.040741	-0.097809	-0.20248	-0.041504	0.091095	0.087738	-0.10407	0.050354	0.026245	-0.00061	1.8304	-0.014343	-0.096283	0.02594	-0.002747	-0.008392
22.157	0.011292	-0.071259	0.076294	0.003662	0.019989	0.021362	-0.046692	0.000458	0.016174	-0.0177	-0.028839	0.006714	0.038605	0.001831	-0.000458	0.009155	-0.018158	-0.11887	-0.11429	-0.061188	0.16007	0.074615	-0.099792	0.045929	-0.012817	-0.006866	1.4645	-0.007324	-0.036316	-0.065155	-0.000305	-0.011902
22.158	-0.00061	-0.044098	0.026245	0.007324	0.006409	0.035858	-0.042419	0.005493	0.015106	-0.015411	0.049744	0.003662	-0.004425	-0.055084	0.005798	0.020905	0.013885	-0.092773	0.11673	-0.041809	-0.02182	0.10513	-0.039825	-0.023956	0.22598	-0.007629	0.30548	-0.001984	0.27161	-0.067139	-0.004883	-0.004425
22.159	0.002441	-0.006256	-0.004883	-0.000305	-0.040436	0.036774	-0.054474	-0.002289	0.009308	-0.022278	0.063782	0.002441	-0.016937	-0.11765	0.004883	0.014801	0.001984	-0.004425	0.28839	-0.00351	-0.35049	0.073395	-0.003204	-0.030212	0.46677	-0.005188	-0.83496	-0.005341	0.41321	0.019226	-0.003662	-0.005951
22.16	0.000763	-0.038147	0.004272	-0.009155	-0.079803	0.015869	-0.032196	0.004578	0.010223	-0.024719	0.018616	0.00412	-0.014801	-0.037689	0.001831	0.005951	-0.002747	-0.13886	0.08194	0.048828	-0.16373	0.00946	0.044098	-0.008087	0.40726	0.006256	-0.85693	-0.001373	0.177	0.1001	-0.001221	-0.015106
22.161	0.001678	-0.077362	-0.016785	0.012817	-0.054169	-0.012665	-0.044861	0.00351	0.021973	-0.040283	0.014343	0.001678	0.016174	0.056152	0.005341	0.018463	0.015564	-0.11429	0.1712	0.072937	0.048218	0.037994	0.090027	-0.062408	0.28748	0.017242	-0.56625	-0.003052	0.092926	0.004425	0	-0.009918
22.162	0.009613	-0.076294	-0.055542	-0.008698	-0.028839	-0.022583	-0.067902	0.00412	0.024719	-0.02655	0.020599	0.002136	0.014496	0.059509	0.010681	0.017395	-0.015106	-0.095673	0.33997	0.10529	-0.001221	0.10346	0.028229	-0.006409	0.1886	0.008698	-0.42267	-0.001373	-0.077057	-0.18997	-0.004883	-0.019379
22.163	0.013123	-0.069885	-0.061951	-0.001068	0.061035	-0.028229	-0.058746	0.007019	0.022888	-0.022888	0.02243	-0.00351	0.007324	0.024567	0.024414	0.026093	-0.045013	-0.10925	0.30792	0.030365	0.072174	0.09201	-0.033112	0.023346	0.083771	0.020905	-0.093384	-0.011902	-0.21027	-0.27679	-0.001373	-0.019379
22.164	0.00351	-0.076752	-0.051727	0.013123	0.10346	0.007629	-0.075226	0.004425	0.025787	-0.006561	0.018921	0.001221	0.005951	-0.002136	0.007172	0.020905	-0.054626	-0.12924	0.4068	-0.012054	0.002441	0.041656	0.10925	0.13504	-0.3363	0.023499	-0.077362	-0.007782	-0.11993	-0.17761	-0.00412	-0.013733
22.165	-0.005798	-0.077667	-0.086517	0.009918	0.046997	0.022125	-0.069427	0.005035	0.019684	-0.022125	0.015106	-0.00473	-0.003967	-0.019073	0.011597	0.018005	-0.022278	-0.19058	0.56595	-0.027313	0.006866	0.022583	0.37476	0.08667	-0.63965	0.016174	-0.1506	-0.008087	-0.11078	0.082245	-0.003357	-0.016327
22.166	-0.007324	-0.075226	-0.11261	-0.009155	0.021057	0.023193	-0.049591	0.010071	0.02533	-0.014038	0.013123	0.007629	-0.010681	-0.005341	0.009918	0.023651	0.002747	-0.22018	-0.093079	-0.052643	0.032349	0.020294	0.42954	0.058899	-0.61371	-0.023804	0.11261	-0.002136	-0.095215	0.66071	-0.003357	-0.003662
22.167	-0.006866	-0.077667	-0.15839	0.006256	-0.01709	0.044403	-0.089111	0.005035	0.027771	0.018616	0.032349	-0.002136	-0.00473	-0.022888	0.007324	0.02594	0.02655	-0.19531	-0.018463	-0.020905	0.031128	0.053101	0.38498	0.014496	-0.33371	-0.059357	0.16068	-0.009766	-0.096893	0.61127	-0.003662	0.003357
22.168	-0.012054	-0.088959	-0.11124	0.008698	-0.04364	0.009155	-0.069122	0.011444	0.015106	-0.016937	0.009308	-0.001678	-0.010681	-0.038757	0.010681	0.006409	0.052795	-0.24063	0.46326	-0.075073	-0.035553	0.042877	0.32471	-0.071106	-0.17609	-0.07019	-0.16495	-0.014496	-0.073242	0.44296	-0.003052	0.000916
22.169	0.000305	-0.11322	-0.040131	0.003662	-0.062256	0.022736	-0.075073	0.00885	0.014801	-0.050812	0.009308	0.001221	-0.024109	-0.053253	0.010071	0.009308	0.011597	-0.18692	0.69183	-0.13733	-0.025635	0.034332	-0.0177	-0.13382	-0.081177	-0.018005	-0.010071	0.006104	0.048676	0.04776	-0.003815	0.004883
22.17	0.00412	-0.11063	-0.032654	0.013885	-0.04364	-0.00412	-0.088348	0.005341	0.015106	-0.031586	0.022888	-0.001678	-0.015411	-0.047302	0.004578	0.000916	0.023956	-0.20905	0.40634	-0.083618	-0.028687	0.032349	-0.037842	-0.12039	-0.1149	-0.009155	-0.14526	0.0354	0.13214	-0.27878	-0.005798	-0.000305
22.171	0.019684	-0.090637	-0.030518	0.004425	0.019073	-0.045319	-0.095978	0.007324	0.0177	-0.023041	0.016174	-0.007782	-0.03891	-0.037231	0.003967	0.015411	0.033112	-0.20752	-0.098572	-0.048981	0.011597	0.030365	0.11536	-0.001373	-0.13886	0.041199	-0.65033	0.011444	0.16434	-0.47028	-0.003052	-0.005493
22.172	0.023193	-0.097809	-0.043488	0.011292	0.041656	-0.024872	-0.10727	0.001221	0.028229	-0.032806	0.010986	-0.007019	-0.029907	-0.010223	0.007172	0.00885	0.004272	-0.22675	-0.23987	-0.022888	-0.14954	0.040283	-0.003357	0.04425	-0.056915	0.036621	-0.10956	0.018768	0.20538	-0.51666	0.000153	-0.00412
22.173	0.022736	-0.098419	-0.00412	0.000458	0.03067	0.024719	-0.09903	-0.003204	0.027618	-0.027161	0.009918	-0.006256	-0.045624	-0.004272	-0.000458	0.019684	-0.03418	-0.19821	-0.39139	0.007935	-0.11749	0.053864	-0.18387	0.10346	0.11902	0.020142	0.4808	0.002594	0.052185	-0.33356	-0.00351	-0.002899
22.174	0.024109	-0.10742	-0.045319	0.003662	0.050659	0.059967	-0.095978	0.009308	0.010223	-0.020905	0.014648	-0.009003	-0.047913	0.031738	-0.003204	0.013123	0.006561	-0.20065	-0.43167	0.051117	0.092163	-0.058594	-0.27802	-0.07782	0.14008	0.006714	0.36514	-0.003815	-0.098877	-0.2536	-0.002747	-0.001678
22.175	0.021515	-0.089874	-0.08194	0.012512	0.037689	0.070801	-0.10376	0.005341	0.006561	-0.022736	0.014954	-0.00885	-0.05249	-0.030975	0.000153	0.017853	0.011749	-0.21988	0.034027	0.075989	-0.075989	-0.067139	-0.1889	-0.012817	0.14084	0.006104	0.39703	-0.005188	-0.059509	-0.19134	0.00061	-0.008698
